<mxfile host="app.diagrams.net" modified="2022-09-21T09:27:28.322Z" agent="5.0 (Windows NT 10.0; Win64; x64) AppleWebKit/537.36 (KHTML, like Gecko) Chrome/105.0.0.0 Safari/537.36" etag="ngAW41KOYs-iKFaFdC5C" version="20.3.3" type="github">
  <diagram id="Bx-xNaHaK0agXE2F0XZd" name="第 1 页">
    <mxGraphModel dx="494" dy="272" grid="1" gridSize="10" guides="1" tooltips="1" connect="1" arrows="1" fold="1" page="1" pageScale="1" pageWidth="827" pageHeight="583" math="1" shadow="0">
      <root>
        <mxCell id="0" />
        <mxCell id="1" parent="0" />
        <mxCell id="VoCDYV5BWMh_LhJW3Wjn-31" value="$$R_q$$" style="text;html=1;resizable=0;autosize=1;align=center;verticalAlign=middle;points=[];fillColor=none;strokeColor=none;rounded=0;" parent="1" vertex="1">
          <mxGeometry x="20" y="420" width="70" height="30" as="geometry" />
        </mxCell>
        <mxCell id="VoCDYV5BWMh_LhJW3Wjn-1" value="" style="endArrow=classic;html=1;rounded=0;" parent="1" edge="1">
          <mxGeometry width="50" height="50" relative="1" as="geometry">
            <mxPoint x="95" y="160" as="sourcePoint" />
            <mxPoint x="260" y="160" as="targetPoint" />
          </mxGeometry>
        </mxCell>
        <mxCell id="VoCDYV5BWMh_LhJW3Wjn-2" value="" style="endArrow=classic;html=1;rounded=0;" parent="1" edge="1">
          <mxGeometry width="50" height="50" relative="1" as="geometry">
            <mxPoint x="95" y="240" as="sourcePoint" />
            <mxPoint x="260" y="240" as="targetPoint" />
          </mxGeometry>
        </mxCell>
        <mxCell id="VoCDYV5BWMh_LhJW3Wjn-7" value="" style="rounded=0;whiteSpace=wrap;html=1;fillColor=#f8cecc;strokeColor=#b85450;opacity=60;" parent="1" vertex="1">
          <mxGeometry x="130" y="190" width="40" height="50" as="geometry" />
        </mxCell>
        <mxCell id="VoCDYV5BWMh_LhJW3Wjn-8" value="" style="rounded=0;whiteSpace=wrap;html=1;fillColor=#f8cecc;strokeColor=#b85450;opacity=60;" parent="1" vertex="1">
          <mxGeometry x="165" y="190" width="40" height="50" as="geometry" />
        </mxCell>
        <mxCell id="VoCDYV5BWMh_LhJW3Wjn-11" value="" style="endArrow=classic;html=1;rounded=0;entryX=0.161;entryY=0.994;entryDx=0;entryDy=0;entryPerimeter=0;" parent="1" edge="1" target="4jKrsYHHsN8ylwv_VJGM-10">
          <mxGeometry width="50" height="50" relative="1" as="geometry">
            <mxPoint x="95" y="330" as="sourcePoint" />
            <mxPoint x="375" y="330" as="targetPoint" />
          </mxGeometry>
        </mxCell>
        <mxCell id="VoCDYV5BWMh_LhJW3Wjn-17" value="" style="endArrow=none;dashed=1;html=1;strokeWidth=1;rounded=0;entryX=0;entryY=1;entryDx=0;entryDy=0;exitX=0;exitY=0;exitDx=0;exitDy=0;strokeColor=#808080;" parent="1" edge="1">
          <mxGeometry width="50" height="50" relative="1" as="geometry">
            <mxPoint x="115" y="280" as="sourcePoint" />
            <mxPoint x="115" y="160" as="targetPoint" />
          </mxGeometry>
        </mxCell>
        <mxCell id="VoCDYV5BWMh_LhJW3Wjn-35" value="" style="endArrow=classic;html=1;rounded=0;endSize=3;strokeWidth=1;" parent="1" edge="1">
          <mxGeometry width="50" height="50" relative="1" as="geometry">
            <mxPoint x="137" y="544.6600000000001" as="sourcePoint" />
            <mxPoint x="157" y="544.6600000000001" as="targetPoint" />
          </mxGeometry>
        </mxCell>
        <mxCell id="VoCDYV5BWMh_LhJW3Wjn-36" value="" style="endArrow=classic;html=1;rounded=0;endSize=3;strokeWidth=1;" parent="1" edge="1">
          <mxGeometry width="50" height="50" relative="1" as="geometry">
            <mxPoint x="127" y="544.6600000000001" as="sourcePoint" />
            <mxPoint x="107" y="544.6600000000001" as="targetPoint" />
          </mxGeometry>
        </mxCell>
        <mxCell id="VoCDYV5BWMh_LhJW3Wjn-82" value="&lt;font face=&quot;Times New Roman&quot;&gt;Queries&lt;/font&gt;" style="text;html=1;resizable=0;autosize=1;align=center;verticalAlign=middle;points=[];fillColor=none;strokeColor=none;rounded=0;fontStyle=1" parent="1" vertex="1">
          <mxGeometry x="40" y="130" width="60" height="30" as="geometry" />
        </mxCell>
        <mxCell id="VoCDYV5BWMh_LhJW3Wjn-83" value="&lt;font face=&quot;Times New Roman&quot;&gt;Updates&lt;/font&gt;" style="text;html=1;resizable=0;autosize=1;align=center;verticalAlign=middle;points=[];fillColor=none;strokeColor=none;rounded=0;fontStyle=1" parent="1" vertex="1">
          <mxGeometry x="35" y="210" width="70" height="30" as="geometry" />
        </mxCell>
        <mxCell id="VoCDYV5BWMh_LhJW3Wjn-84" value="&lt;font face=&quot;Times New Roman&quot;&gt;Task Queue&lt;/font&gt;" style="text;html=1;resizable=0;autosize=1;align=center;verticalAlign=middle;points=[];fillColor=none;strokeColor=none;rounded=0;fontStyle=1" parent="1" vertex="1">
          <mxGeometry x="30" y="300" width="80" height="30" as="geometry" />
        </mxCell>
        <mxCell id="VoCDYV5BWMh_LhJW3Wjn-85" value="" style="shape=flexArrow;endArrow=classic;html=1;rounded=0;fontFamily=Times New Roman;strokeColor=#1A1A1A;strokeWidth=1;endSize=5;startSize=10;" parent="1" edge="1">
          <mxGeometry width="50" height="50" relative="1" as="geometry">
            <mxPoint x="380" y="560.34" as="sourcePoint" />
            <mxPoint x="429" y="560" as="targetPoint" />
          </mxGeometry>
        </mxCell>
        <mxCell id="4jKrsYHHsN8ylwv_VJGM-1" value="&lt;font face=&quot;Times New Roman&quot;&gt;Sequence Order:&lt;/font&gt;" style="text;html=1;resizable=0;autosize=1;align=center;verticalAlign=middle;points=[];fillColor=none;strokeColor=none;rounded=0;fontStyle=1" vertex="1" parent="1">
          <mxGeometry x="40" y="60" width="110" height="30" as="geometry" />
        </mxCell>
        <mxCell id="4jKrsYHHsN8ylwv_VJGM-2" value="&lt;font style=&quot;font-size: 12px;&quot; face=&quot;Times New Roman&quot;&gt;[Q1&amp;nbsp; U1&amp;nbsp; Q2&amp;nbsp; U2&amp;nbsp; Q3]&lt;/font&gt;" style="text;html=1;resizable=0;autosize=1;align=center;verticalAlign=middle;points=[];fillColor=none;strokeColor=none;rounded=0;fontStyle=1" vertex="1" parent="1">
          <mxGeometry x="130" y="60" width="130" height="30" as="geometry" />
        </mxCell>
        <mxCell id="4jKrsYHHsN8ylwv_VJGM-6" value="" style="rounded=0;whiteSpace=wrap;html=1;fillColor=#dae8fc;strokeColor=#6c8ebf;opacity=60;" vertex="1" parent="1">
          <mxGeometry x="115" y="110" width="40" height="50" as="geometry" />
        </mxCell>
        <mxCell id="4jKrsYHHsN8ylwv_VJGM-4" value="" style="rounded=0;whiteSpace=wrap;html=1;fillColor=#dae8fc;strokeColor=#6c8ebf;opacity=60;" vertex="1" parent="1">
          <mxGeometry x="140" y="110" width="60" height="50" as="geometry" />
        </mxCell>
        <mxCell id="VoCDYV5BWMh_LhJW3Wjn-4" value="" style="rounded=0;whiteSpace=wrap;html=1;fillColor=#dae8fc;strokeColor=#6c8ebf;opacity=60;" parent="1" vertex="1">
          <mxGeometry x="190" y="110" width="40" height="50" as="geometry" />
        </mxCell>
        <mxCell id="4jKrsYHHsN8ylwv_VJGM-7" value="" style="rounded=0;whiteSpace=wrap;html=1;fillColor=#dae8fc;strokeColor=#6c8ebf;opacity=60;" vertex="1" parent="1">
          <mxGeometry x="115" y="280" width="40" height="50" as="geometry" />
        </mxCell>
        <mxCell id="4jKrsYHHsN8ylwv_VJGM-8" value="" style="rounded=0;whiteSpace=wrap;html=1;fillColor=#f8cecc;strokeColor=#b85450;opacity=60;" vertex="1" parent="1">
          <mxGeometry x="155" y="280" width="40" height="50" as="geometry" />
        </mxCell>
        <mxCell id="4jKrsYHHsN8ylwv_VJGM-9" value="" style="rounded=0;whiteSpace=wrap;html=1;fillColor=#dae8fc;strokeColor=#6c8ebf;opacity=60;" vertex="1" parent="1">
          <mxGeometry x="195" y="280" width="60" height="50" as="geometry" />
        </mxCell>
        <mxCell id="4jKrsYHHsN8ylwv_VJGM-10" value="" style="rounded=0;whiteSpace=wrap;html=1;fillColor=#f8cecc;strokeColor=#b85450;opacity=60;" vertex="1" parent="1">
          <mxGeometry x="255" y="280" width="40" height="50" as="geometry" />
        </mxCell>
        <mxCell id="4jKrsYHHsN8ylwv_VJGM-11" value="" style="rounded=0;whiteSpace=wrap;html=1;fillColor=#dae8fc;strokeColor=#6c8ebf;opacity=60;" vertex="1" parent="1">
          <mxGeometry x="295" y="280" width="40" height="50" as="geometry" />
        </mxCell>
        <mxCell id="4jKrsYHHsN8ylwv_VJGM-12" value="" style="endArrow=none;dashed=1;html=1;strokeWidth=1;rounded=0;entryX=0;entryY=1;entryDx=0;entryDy=0;exitX=0;exitY=0;exitDx=0;exitDy=0;strokeColor=#808080;" edge="1" parent="1">
          <mxGeometry width="50" height="50" relative="1" as="geometry">
            <mxPoint x="140" y="280" as="sourcePoint" />
            <mxPoint x="140" y="160" as="targetPoint" />
          </mxGeometry>
        </mxCell>
        <mxCell id="4jKrsYHHsN8ylwv_VJGM-13" value="" style="endArrow=none;dashed=1;html=1;strokeWidth=1;rounded=0;entryX=0;entryY=1;entryDx=0;entryDy=0;exitX=0;exitY=0;exitDx=0;exitDy=0;strokeColor=#808080;" edge="1" parent="1">
          <mxGeometry width="50" height="50" relative="1" as="geometry">
            <mxPoint x="190" y="280" as="sourcePoint" />
            <mxPoint x="190" y="160" as="targetPoint" />
          </mxGeometry>
        </mxCell>
        <mxCell id="4jKrsYHHsN8ylwv_VJGM-14" value="" style="endArrow=none;dashed=1;html=1;strokeWidth=1;rounded=0;entryX=0;entryY=1;entryDx=0;entryDy=0;exitX=0;exitY=0;exitDx=0;exitDy=0;strokeColor=#808080;" edge="1" parent="1">
          <mxGeometry width="50" height="50" relative="1" as="geometry">
            <mxPoint x="155" y="280" as="sourcePoint" />
            <mxPoint x="155" y="160" as="targetPoint" />
          </mxGeometry>
        </mxCell>
        <mxCell id="4jKrsYHHsN8ylwv_VJGM-15" value="" style="endArrow=none;dashed=1;html=1;strokeWidth=1;rounded=0;entryX=0;entryY=1;entryDx=0;entryDy=0;exitX=0;exitY=0;exitDx=0;exitDy=0;strokeColor=#808080;" edge="1" parent="1">
          <mxGeometry width="50" height="50" relative="1" as="geometry">
            <mxPoint x="255" y="280" as="sourcePoint" />
            <mxPoint x="255" y="160" as="targetPoint" />
          </mxGeometry>
        </mxCell>
        <mxCell id="4jKrsYHHsN8ylwv_VJGM-16" value="" style="endArrow=none;dashed=1;html=1;strokeWidth=1;rounded=0;entryX=0;entryY=1;entryDx=0;entryDy=0;exitX=0;exitY=0;exitDx=0;exitDy=0;strokeColor=#808080;" edge="1" parent="1">
          <mxGeometry width="50" height="50" relative="1" as="geometry">
            <mxPoint x="335" y="280" as="sourcePoint" />
            <mxPoint x="335" y="160" as="targetPoint" />
          </mxGeometry>
        </mxCell>
        <mxCell id="4jKrsYHHsN8ylwv_VJGM-20" value="$$R_q$$" style="text;html=1;resizable=0;autosize=1;align=center;verticalAlign=middle;points=[];fillColor=none;strokeColor=none;rounded=0;" vertex="1" parent="1">
          <mxGeometry x="100" y="250" width="70" height="30" as="geometry" />
        </mxCell>
        <mxCell id="4jKrsYHHsN8ylwv_VJGM-22" value="" style="endArrow=classic;html=1;rounded=0;endSize=3;strokeWidth=1;jumpSize=6;startSize=6;" edge="1" parent="1">
          <mxGeometry width="50" height="50" relative="1" as="geometry">
            <mxPoint x="127" y="265" as="sourcePoint" />
            <mxPoint x="117" y="265" as="targetPoint" />
          </mxGeometry>
        </mxCell>
        <mxCell id="4jKrsYHHsN8ylwv_VJGM-24" value="" style="endArrow=classic;html=1;rounded=0;endSize=3;strokeWidth=1;jumpSize=6;startSize=6;" edge="1" parent="1">
          <mxGeometry width="50" height="50" relative="1" as="geometry">
            <mxPoint x="450" y="570" as="sourcePoint" />
            <mxPoint x="440" y="570" as="targetPoint" />
          </mxGeometry>
        </mxCell>
        <mxCell id="4jKrsYHHsN8ylwv_VJGM-25" value="" style="endArrow=classic;html=1;rounded=0;endSize=3;strokeWidth=1;" edge="1" parent="1">
          <mxGeometry width="50" height="50" relative="1" as="geometry">
            <mxPoint x="143" y="265.0000000000001" as="sourcePoint" />
            <mxPoint x="153" y="265" as="targetPoint" />
          </mxGeometry>
        </mxCell>
        <mxCell id="4jKrsYHHsN8ylwv_VJGM-26" value="$$R_q$$" style="text;html=1;resizable=0;autosize=1;align=center;verticalAlign=middle;points=[];fillColor=none;strokeColor=none;rounded=0;" vertex="1" parent="1">
          <mxGeometry x="164" y="240" width="70" height="30" as="geometry" />
        </mxCell>
        <mxCell id="4jKrsYHHsN8ylwv_VJGM-28" value="" style="endArrow=classic;html=1;rounded=0;endSize=3;strokeWidth=1;" edge="1" parent="1">
          <mxGeometry width="50" height="50" relative="1" as="geometry">
            <mxPoint x="192" y="255" as="sourcePoint" />
            <mxPoint x="142" y="255.0000000000001" as="targetPoint" />
          </mxGeometry>
        </mxCell>
        <mxCell id="4jKrsYHHsN8ylwv_VJGM-29" value="" style="endArrow=classic;html=1;rounded=0;endSize=3;strokeWidth=1;" edge="1" parent="1">
          <mxGeometry width="50" height="50" relative="1" as="geometry">
            <mxPoint x="203" y="255.0000000000001" as="sourcePoint" />
            <mxPoint x="253" y="255" as="targetPoint" />
          </mxGeometry>
        </mxCell>
        <mxCell id="4jKrsYHHsN8ylwv_VJGM-30" value="$$R_q$$" style="text;html=1;resizable=0;autosize=1;align=center;verticalAlign=middle;points=[];fillColor=none;strokeColor=none;rounded=0;" vertex="1" parent="1">
          <mxGeometry x="230" y="253" width="70" height="30" as="geometry" />
        </mxCell>
        <mxCell id="4jKrsYHHsN8ylwv_VJGM-31" value="" style="endArrow=classic;html=1;rounded=0;endSize=3;strokeWidth=1;entryX=0.371;entryY=0.933;entryDx=0;entryDy=0;entryPerimeter=0;" edge="1" parent="1">
          <mxGeometry width="50" height="50" relative="1" as="geometry">
            <mxPoint x="258" y="268" as="sourcePoint" />
            <mxPoint x="191.97000000000003" y="267.99" as="targetPoint" />
          </mxGeometry>
        </mxCell>
        <mxCell id="4jKrsYHHsN8ylwv_VJGM-32" value="" style="endArrow=classic;html=1;rounded=0;endSize=3;strokeWidth=1;" edge="1" parent="1">
          <mxGeometry width="50" height="50" relative="1" as="geometry">
            <mxPoint x="269" y="268.0000000000001" as="sourcePoint" />
            <mxPoint x="332" y="268" as="targetPoint" />
          </mxGeometry>
        </mxCell>
      </root>
    </mxGraphModel>
  </diagram>
</mxfile>
